<?xml version="1.0" encoding="utf-8"?>
<!-- Generator: Adobe Illustrator 15.0.0, SVG Export Plug-In . SVG Version: 6.00 Build 0)  -->
<!DOCTYPE svg PUBLIC "-//W3C//DTD SVG 1.1//EN" "http://www.w3.org/Graphics/SVG/1.1/DTD/svg11.dtd">
<svg version="1.1" id="Layer_1" xmlns="http://www.w3.org/2000/svg" xmlns:xlink="http://www.w3.org/1999/xlink" x="0px" y="0px"
	 width="843.741px" height="170.08px" viewBox="49.606 49.596 843.741 170.08"
	 enable-background="new 49.606 49.596 843.741 170.08" xml:space="preserve">
<g id="flag_eu">
	<g>
		<path fill="#004494" d="M396.185,219.676h-56.026v-85.041h56.026v10.053h-44.72v23.303h44.72v10.051h-44.72v31.584h44.72V219.676z
			"/>
		<path fill="#004494" d="M448.658,167.59h-0.571c-1.599-0.381-3.15-0.656-4.654-0.828c-1.505-0.172-3.283-0.258-5.34-0.258
			c-3.313,0-6.511,0.733-9.595,2.199c-3.085,1.467-6.055,3.36-8.91,5.684v45.289h-10.737v-63.795h10.737v9.424
			c4.264-3.426,8.024-5.854,11.28-7.281c3.255-1.428,6.576-2.143,9.966-2.143c1.865,0,3.217,0.049,4.055,0.145
			c0.837,0.094,2.095,0.275,3.771,0.541L448.658,167.59L448.658,167.59z"/>
		<path fill="#004494" d="M506.412,219.676H495.73v-6.795c-0.951,0.646-2.236,1.551-3.854,2.711
			c-1.619,1.162-3.189,2.086-4.713,2.771c-1.789,0.875-3.846,1.607-6.168,2.197c-2.322,0.592-5.045,0.887-8.166,0.887
			c-5.75,0-10.624-1.903-14.622-5.711c-3.998-3.809-5.997-8.662-5.997-14.563c0-4.836,1.037-8.748,3.113-11.736
			c2.074-2.988,5.034-5.34,8.881-7.053c3.884-1.715,8.546-2.875,13.992-3.484c5.445-0.609,11.289-1.066,17.532-1.371v-1.656
			c0-2.436-0.428-4.455-1.282-6.055c-0.857-1.598-2.086-2.855-3.687-3.77c-1.521-0.875-3.35-1.465-5.481-1.771
			c-2.133-0.305-4.359-0.457-6.683-0.457c-2.817,0-5.959,0.371-9.423,1.113c-3.466,0.742-7.045,1.817-10.737,3.228h-0.57v-10.908
			c2.094-0.57,5.12-1.199,9.081-1.885c3.959-0.687,7.861-1.027,11.708-1.027c4.491,0,8.403,0.371,11.735,1.113
			c3.332,0.741,6.218,2.01,8.652,3.799c2.4,1.752,4.227,4.018,5.484,6.795c1.256,2.781,1.885,6.227,1.885,10.338L506.412,219.676
			L506.412,219.676z M495.73,203.971v-17.762c-3.273,0.188-7.13,0.477-11.564,0.854c-4.436,0.381-7.949,0.935-10.537,1.656
			c-3.084,0.877-5.579,2.237-7.481,4.084c-1.904,1.848-2.855,4.389-2.855,7.625c0,3.653,1.104,6.405,3.313,8.252
			c2.208,1.848,5.576,2.771,10.108,2.771c3.771,0,7.215-0.732,10.338-2.197C490.171,207.788,493.066,206.027,495.73,203.971z"/>
		<path fill="#004494" d="M568.591,201.286c0,5.825-2.408,10.604-7.225,14.336c-4.818,3.731-11.396,5.598-19.732,5.598
			c-4.723,0-9.053-0.563-12.994-1.686c-3.938-1.123-7.244-2.351-9.907-3.685v-12.052h0.569c3.39,2.552,7.158,4.578,11.31,6.082
			c4.149,1.507,8.129,2.257,11.938,2.257c4.722,0,8.414-0.761,11.078-2.283c2.666-1.522,3.998-3.922,3.998-7.197
			c0-2.512-0.723-4.416-2.17-5.711c-1.447-1.293-4.228-2.397-8.338-3.313c-1.523-0.342-3.513-0.741-5.969-1.198
			c-2.455-0.457-4.693-0.951-6.712-1.484c-5.596-1.485-9.565-3.663-11.907-6.538c-2.343-2.875-3.513-6.406-3.513-10.597
			c0-2.627,0.543-5.103,1.627-7.424c1.086-2.322,2.732-4.397,4.941-6.226c2.131-1.791,4.844-3.209,8.139-4.256
			c3.293-1.047,6.978-1.57,11.052-1.57c3.807,0,7.661,0.468,11.563,1.398c3.902,0.934,7.148,2.066,9.738,3.398v11.479h-0.57
			c-2.742-2.018-6.074-3.723-9.996-5.11c-3.922-1.392-7.766-2.086-11.535-2.086c-3.922,0-7.233,0.752-9.938,2.256
			c-2.705,1.506-4.057,3.742-4.057,6.711c0,2.627,0.817,4.606,2.457,5.938c1.6,1.334,4.188,2.421,7.768,3.257
			c1.979,0.457,4.197,0.914,6.652,1.37c2.457,0.457,4.502,0.878,6.141,1.257c4.986,1.143,8.832,3.104,11.537,5.883
			C567.24,192.911,568.591,196.641,568.591,201.286z"/>
		<path fill="#004494" d="M673.083,219.676h-10.738v-36.322c0-2.742-0.123-5.389-0.371-7.939c-0.248-2.55-0.771-4.588-1.569-6.11
			c-0.877-1.638-2.133-2.873-3.771-3.714c-1.637-0.836-3.998-1.256-7.082-1.256c-3.008,0-6.016,0.752-9.022,2.256
			c-3.008,1.507-6.017,3.419-9.023,5.74c0.113,0.877,0.209,1.896,0.285,3.056c0.076,1.161,0.115,2.313,0.115,3.457v40.834h-10.738
			v-36.322c0-2.817-0.123-5.492-0.371-8.024c-0.248-2.531-0.771-4.56-1.569-6.082c-0.878-1.638-2.134-2.865-3.771-3.685
			s-3.998-1.229-7.082-1.229c-2.932,0-5.873,0.726-8.824,2.17c-2.95,1.447-5.893,3.295-8.823,5.541v47.632H579.99v-63.796h10.735
			v7.082c3.353-2.776,6.691-4.948,10.023-6.51c3.332-1.561,6.883-2.342,10.652-2.342c4.34,0,8.022,0.914,11.051,2.742
			c3.027,1.826,5.283,4.359,6.768,7.596c4.342-3.656,8.302-6.291,11.879-7.91c3.58-1.619,7.406-2.428,11.48-2.428
			c7.006,0,12.174,2.123,15.506,6.367c3.332,4.246,4.998,10.176,4.998,17.791V219.676z"/>
		<path fill="#004494" d="M740.712,219.676h-10.736v-7.082c-3.619,2.854-7.082,5.047-10.395,6.568
			c-3.313,1.522-6.969,2.284-10.967,2.284c-6.701,0-11.918-2.047-15.648-6.141c-3.731-4.093-5.596-10.099-5.596-18.019v-41.408
			h10.736v36.324c0,3.236,0.151,6.006,0.456,8.312c0.306,2.303,0.951,4.272,1.941,5.909c1.027,1.677,2.361,2.896,3.998,3.656
			c1.637,0.762,4.016,1.142,7.139,1.142c2.779,0,5.816-0.724,9.109-2.17c3.293-1.445,6.369-3.293,9.225-5.539v-47.634h10.736
			L740.712,219.676L740.712,219.676z"/>
		<path fill="#004494" d="M803.408,201.286c0,5.825-2.408,10.604-7.226,14.336c-4.815,3.731-11.395,5.598-19.731,5.598
			c-4.721,0-9.053-0.563-12.992-1.686c-3.94-1.123-7.244-2.351-9.91-3.685v-12.052h0.572c3.389,2.552,7.158,4.578,11.309,6.082
			c4.148,1.507,8.128,2.257,11.937,2.257c4.721,0,8.414-0.761,11.08-2.283c2.664-1.522,3.998-3.922,3.998-7.197
			c0-2.512-0.726-4.416-2.17-5.711c-1.447-1.293-4.228-2.397-8.34-3.313c-1.523-0.342-3.513-0.741-5.968-1.198
			c-2.457-0.457-4.692-0.951-6.711-1.484c-5.598-1.485-9.565-3.663-11.908-6.538c-2.342-2.875-3.512-6.406-3.512-10.597
			c0-2.627,0.541-5.103,1.627-7.424c1.086-2.322,2.73-4.397,4.939-6.226c2.133-1.791,4.846-3.209,8.139-4.256
			s6.978-1.57,11.051-1.57c3.81,0,7.662,0.468,11.566,1.398c3.901,0.934,7.147,2.066,9.738,3.398v11.479h-0.572
			c-2.74-2.018-6.072-3.723-9.994-5.11c-3.922-1.392-7.769-2.086-11.537-2.086c-3.922,0-7.234,0.752-9.938,2.256
			c-2.703,1.506-4.056,3.742-4.056,6.711c0,2.627,0.818,4.606,2.455,5.938c1.601,1.334,4.189,2.421,7.769,3.257
			c1.979,0.457,4.196,0.914,6.653,1.37c2.455,0.457,4.502,0.878,6.14,1.257c4.987,1.143,8.834,3.104,11.536,5.883
			C802.056,192.911,803.408,196.641,803.408,201.286z"/>
		<path fill="#004494" d="M893.347,187.008H862.22v31.127h-9.479v-31.127h-31.125v-9.139h31.125v-31.125h9.479v31.125h31.127
			V187.008z"/>
	</g>
</g>
<g id="Layer_1_1_">
	<rect y="-0.001" fill="none" width="942.958" height="269.291"/>
	<g>
		<g>
			<rect x="49.606" y="49.596" fill="#004494" width="255.118" height="170.078"/>
			<g>
				<polygon fill="#FFED00" points="177.177,68.493 179.278,75.057 186.152,75.028 180.565,79.049 182.724,85.584 177.177,81.514 
					171.617,85.588 173.776,79.049 168.181,75.028 175.067,75.057 				"/>
			</g>
			<g>
				<polygon fill="#FFED00" points="148.83,76.089 150.932,82.652 157.806,82.624 152.219,86.645 154.377,93.18 148.83,89.109 
					143.271,93.184 145.43,86.645 139.834,82.624 146.721,82.652 				"/>
			</g>
			<g>
				<polygon fill="#FFED00" points="128.081,96.84 130.181,103.403 137.056,103.375 131.469,107.395 133.627,113.931 
					128.08,109.859 122.521,113.936 124.68,107.396 119.084,103.375 125.971,103.404 				"/>
			</g>
			<g>
				<polygon fill="#FFED00" points="120.487,125.187 122.587,131.75 129.462,131.722 123.875,135.741 126.033,142.277 
					120.486,138.206 114.927,142.282 117.086,135.743 111.49,131.722 118.377,131.751 				"/>
			</g>
			<g>
				<polygon fill="#FFED00" points="128.083,153.532 130.183,160.096 137.058,160.068 131.47,164.086 133.628,170.624 
					128.081,166.553 122.522,170.629 124.682,164.09 119.085,160.067 125.973,160.097 				"/>
			</g>
			<g>
				<polygon fill="#FFED00" points="148.834,174.284 150.934,180.848 157.809,180.818 152.221,184.838 154.379,191.375 
					148.832,187.303 143.272,191.379 145.433,184.84 139.836,180.818 146.725,180.848 				"/>
			</g>
			<g>
				<polygon fill="#FFED00" points="177.183,181.875 179.283,188.44 186.158,188.411 180.57,192.431 182.729,198.968 
					177.181,194.896 171.621,198.972 173.781,192.433 168.186,188.411 175.074,188.44 				"/>
			</g>
			<g>
				<polygon fill="#FFED00" points="205.527,174.281 207.626,180.844 214.502,180.814 208.912,184.834 211.072,191.372 
					205.525,187.299 199.965,191.375 202.125,184.836 196.529,180.814 203.418,180.844 				"/>
			</g>
			<g>
				<polygon fill="#FFED00" points="226.277,153.529 228.375,160.093 235.251,160.064 229.662,164.084 231.822,170.622 
					226.275,166.549 220.715,170.625 222.875,164.086 217.279,160.064 224.168,160.093 				"/>
			</g>
			<g>
				<polygon fill="#FFED00" points="233.873,125.182 235.971,131.744 242.847,131.717 237.258,135.736 239.418,142.273 
					233.87,138.202 228.31,142.277 230.471,135.738 224.874,131.717 231.764,131.744 				"/>
			</g>
			<g>
				<polygon fill="#FFED00" points="226.277,96.838 228.375,103.401 235.25,103.374 229.661,107.394 231.822,113.93 
					226.274,109.858 220.714,113.935 222.875,107.396 217.279,103.372 224.168,103.401 				"/>
			</g>
			<g>
				<polygon fill="#FFED00" points="205.525,76.089 207.623,82.651 214.497,82.624 208.909,86.644 211.069,93.18 205.523,89.108 
					199.962,93.186 202.124,86.646 196.526,82.623 203.415,82.651 				"/>
			</g>
		</g>
	</g>
</g>
</svg>
